<svg xmlns="http://www.w3.org/2000/svg" class="svg-icon" style="width:1em;height:1em;vertical-align:middle;fill:currentColor;overflow:hidden" viewBox="0 0 1024 1024"><path fill="#DCE5F7" d="M715.442 184.731c-87.248 0-162.081 14.892-201.1 39.87-39.043-25.004-113.852-39.87-201.099-39.87-108.446 0-235.112 24.378-235.112 92.954v525.162a33.912 33.912 0 0 0 12.113 26.005c6.108 5.155 13.89 8.033 21.9 8.033 1.928 0 3.854-.15 5.782-.55 58.94-10.185 126.516-15.592 195.318-15.592 68.878 0 136.377 5.407 195.244 15.592.701.15 1.376.15 2.003.224l.776.075c.701.075 1.376.15 1.928.15 2.152.3 4.23 0 6.332-.376l.626-.075c58.94-10.186 126.442-15.592 195.319-15.592s136.376 5.406 195.318 15.592c1.851.301 3.854.55 5.782.55 8.033 0 15.743-2.854 21.9-8.033a33.909 33.909 0 0 0 12.113-26.004V277.684c-.007-68.6-126.673-92.953-235.143-92.953z"/><path fill="#4E6DC4" d="M515.03 848.418c-.91 0-1.822-.045-2.743-.146a41.964 41.964 0 0 1-2.31-.203c-1.945-.163-2.917-.27-3.918-.483-57.854-9.999-124.69-15.332-192.812-15.332-68.105 0-134.963 5.333-193.357 15.422-2.197.46-4.85.72-7.745.72-10.695 0-21.11-3.817-29.326-10.746a45.4 45.4 0 0 1-16.198-34.8V277.687c0-77.02 127.4-104.463 246.62-104.463 84.72 0 158.985 14.107 201.103 37.953 42.128-23.846 116.389-37.953 201.096-37.953 119.238 0 246.648 27.443 246.654 104.463v525.157a45.365 45.365 0 0 1-16.214 34.81c-10.179 8.566-24.251 12.095-36.92 10.044-58.494-10.11-125.358-15.444-193.486-15.444-68.134 0-134.998 5.333-193.358 15.422-.214.039-1.05.14-1.265.162-1.47.288-3.634.58-5.821.58zm-201.783-39.184c69.416 0 137.61 5.451 197.202 15.759.157.01 1.22.117 1.377.135l1.545.151c.314.017 1.118.062 1.433.107l.226.011c.826 0 1.641-.174 2.467-.32a50.28 50.28 0 0 1 1.332-.175c59.002-10.217 127.22-15.67 196.646-15.67 69.42 0 137.639 5.452 197.28 15.76 5.676.898 13.19-.653 18.305-4.952a22.405 22.405 0 0 0 8.014-17.198V277.687c-.005-56.258-112.32-81.442-223.634-81.442-84.82 0-157.675 14.225-194.892 38.055a11.528 11.528 0 0 1-12.41 0c-37.205-23.83-110.065-38.055-194.897-38.055-111.297 0-223.6 25.185-223.6 81.442V802.85a22.444 22.444 0 0 0 8.014 17.198c4.075 3.44 9.217 5.328 14.49 5.328 1.309 0 2.438-.1 3.45-.309 60.042-10.38 128.26-15.833 197.652-15.833z"/><path fill="#FFF" d="M882.658 286.068v480.037c-51.533-6.782-109.147-10.411-167.163-10.411s-115.628 3.554-167.161 10.41V286.069c12.815-10.336 68.726-30.534 167.162-30.534s154.373 20.198 167.162 30.534z"/><path fill="#4E6DC4" d="M882.659 777.614c-.5 0-1-.034-1.501-.101-102.973-13.556-230.423-13.432-331.306 0-3.271.46-6.604-.562-9.1-2.748a11.52 11.52 0 0 1-3.928-8.661V286.066c0-3.479 1.574-6.772 4.283-8.959 16.49-13.297 76.542-33.085 174.39-33.085 97.903 0 157.932 19.788 174.395 33.092a11.513 11.513 0 0 1 4.276 8.952v480.039a11.507 11.507 0 0 1-11.51 11.51zm-167.162-33.429c53.342 0 106.846 3.058 155.652 8.874V292.35c-15.146-8.093-63.766-25.307-155.652-25.307-91.834 0-140.482 17.214-155.65 25.307v460.7c48.35-5.807 101.853-8.865 155.65-8.865z"/><path fill="#FFF" d="M480.383 286.068v480.037c-52.232-6.933-109.923-10.562-167.162-10.562s-114.928 3.63-167.163 10.562V286.068c12.815-10.336 68.727-30.534 167.163-30.534 98.436-.1 154.424 20.198 167.162 30.534z"/><path fill="#4E6DC4" d="M480.381 777.614c-.505 0-1.011-.034-1.517-.101-103.058-13.674-228.209-13.685-331.288 0-3.288.46-6.604-.562-9.1-2.748a11.52 11.52 0 0 1-3.928-8.661V286.066c0-3.479 1.573-6.772 4.283-8.959 16.49-13.297 76.541-33.085 174.389-33.085 98.218 0 158.017 19.8 174.418 33.108a11.512 11.512 0 0 1 4.254 8.936v480.039a11.507 11.507 0 0 1-11.51 11.51zM157.568 292.35v460.7c98.118-11.814 213.196-11.814 311.303 0V292.253c-17.321-9.476-70.46-25.212-154.96-25.212-92.447 0-141.174 17.214-156.343 25.308z"/><path fill="#4E6DC4" d="M599.754 411.847c0 8.785 7.183 15.967 15.968 15.967h203.027c8.785 0 15.967-7.182 15.967-15.967s-7.182-15.968-15.967-15.968H615.723c-8.81 0-15.969 7.183-15.969 15.968zm218.92 83.017H615.648c-8.785 0-15.968 7.183-15.968 15.968s7.183 15.967 15.968 15.967h203.027c8.785 0 15.968-7.182 15.968-15.967s-7.183-15.968-15.969-15.968zm0 98.96H615.648c-8.785 0-15.968 7.183-15.968 15.968s7.183 15.968 15.968 15.968h203.027c8.785 0 15.968-7.183 15.968-15.968s-7.183-15.967-15.969-15.967zm-608.706 31.937h203.027c8.785 0 15.968-7.183 15.968-15.968s-7.183-15.967-15.968-15.967H209.968c-8.785 0-15.967 7.182-15.967 15.967-.001 8.784 7.158 15.968 15.967 15.968zm0-98.962h203.027c8.785 0 15.968-7.182 15.968-15.967s-7.183-15.968-15.968-15.968H209.968c-8.785 0-15.967 7.183-15.967 15.968-.001 8.785 7.158 15.967 15.967 15.967zm0-98.985h203.027c8.785 0 15.968-7.182 15.968-15.967s-7.183-15.968-15.968-15.968H209.968c-8.785 0-15.967 7.183-15.967 15.968-.001 8.785 7.158 15.967 15.967 15.967z"/></svg>